<?xml version="1.0" encoding="UTF-8" standalone="no"?><!DOCTYPE svg PUBLIC "-//W3C//DTD SVG 1.1//EN" "http://www.w3.org/Graphics/SVG/1.1/DTD/svg11.dtd"><svg width="100%" height="100%" viewBox="0 0 50 50" version="1.1" xmlns="http://www.w3.org/2000/svg" xmlns:xlink="http://www.w3.org/1999/xlink" xml:space="preserve" style="fill-rule:evenodd;clip-rule:evenodd;stroke-linejoin:round;stroke-miterlimit:1.41421;"><path d="M37.032,48.96c0.432,0 0.72,-0.288 0.72,-0.72l0,-22.824c0,-8.496 -3.744,-11.736 -13.536,-11.736c-5.112,0 -9.144,1.368 -11.736,3.384c-0.288,0.288 -0.36,0.576 -0.144,1.008l1.944,3.312c0.216,0.36 0.648,0.36 1.008,0.072c2.016,-1.44 4.464,-2.448 8.352,-2.448c6.408,0 8.28,2.016 8.28,6.768l0,2.52c0,0.288 -0.144,0.432 -0.432,0.432l-7.848,0c-8.424,0 -13.464,3.384 -13.464,10.656c0,6.984 5.04,10.368 11.592,10.368c5.256,0 8.64,-1.944 10.224,-4.536l0.072,0l0,3.024c0,0.432 0.288,0.72 0.72,0.72l4.248,0Zm-13.824,-4.392c-4.608,0 -7.2,-1.872 -7.2,-5.4c0,-3.888 2.592,-5.616 8.568,-5.616l6.912,0c0.288,0 0.432,0.144 0.432,0.432l0,3.816c0,4.248 -3.312,6.768 -8.712,6.768Z" style="fill-rule:nonzero;"/></svg>