<?xml version="1.0" encoding="UTF-8" standalone="no"?><!DOCTYPE svg PUBLIC "-//W3C//DTD SVG 1.1//EN" "http://www.w3.org/Graphics/SVG/1.1/DTD/svg11.dtd"><svg width="100%" height="100%" viewBox="0 0 50 50" version="1.1" xmlns="http://www.w3.org/2000/svg" xmlns:xlink="http://www.w3.org/1999/xlink" xml:space="preserve" style="fill-rule:evenodd;clip-rule:evenodd;stroke-linejoin:round;stroke-miterlimit:1.41421;"><path d="M11.92,31.68c0,3.888 0.432,6.696 1.08,8.784c1.944,5.976 6.984,9.288 13.608,9.288c5.256,0 9.288,-2.232 11.808,-5.832c0.216,-0.36 0.216,-0.648 -0.216,-1.008l-3.168,-2.592c-0.36,-0.288 -0.72,-0.288 -1.008,0.072c-2.016,2.52 -3.96,3.744 -7.416,3.744c-3.744,0 -6.552,-1.8 -7.704,-5.4c-0.576,-1.8 -0.792,-3.96 -0.792,-7.056c0,-3.024 0.216,-5.184 0.792,-6.984c1.152,-3.6 3.96,-5.4 7.704,-5.4c3.456,0 5.4,1.224 7.416,3.744c0.288,0.36 0.648,0.36 1.008,0.072l3.168,-2.592c0.432,-0.36 0.432,-0.648 0.216,-1.008c-2.52,-3.6 -6.552,-5.832 -11.808,-5.832c-6.624,0 -11.664,3.312 -13.608,9.288c-0.648,2.088 -1.08,4.896 -1.08,8.712Z" style="fill-rule:nonzero;"/></svg>