<?xml version="1.0" encoding="UTF-8" standalone="no"?><!DOCTYPE svg PUBLIC "-//W3C//DTD SVG 1.1//EN" "http://www.w3.org/Graphics/SVG/1.1/DTD/svg11.dtd"><svg width="100%" height="100%" viewBox="0 0 50 50" version="1.1" xmlns="http://www.w3.org/2000/svg" xmlns:xlink="http://www.w3.org/1999/xlink" xml:space="preserve" style="fill-rule:evenodd;clip-rule:evenodd;stroke-linejoin:round;stroke-miterlimit:1.41421;"><path d="M38.2,48.96c0.432,0 0.72,-0.288 0.72,-0.72l0,-47.52c0,-0.432 -0.288,-0.72 -0.72,-0.72l-4.608,0c-0.432,0 -0.72,0.288 -0.72,0.72l0,17.712l-0.072,0c-1.656,-2.736 -4.608,-4.752 -9.792,-4.752c-5.976,0 -10.152,2.808 -11.88,8.28c-0.936,2.736 -1.224,5.472 -1.224,9.72c0,4.32 0.288,7.056 1.224,9.792c1.728,5.472 5.904,8.28 11.88,8.28c5.184,0 8.136,-2.088 9.792,-4.824l0.072,0l0,3.312c0,0.432 0.288,0.72 0.72,0.72l4.608,0Zm-13.752,-4.824c-3.816,0 -6.408,-1.872 -7.56,-5.256c-0.576,-1.8 -0.792,-4.032 -0.792,-7.2c0,-3.096 0.216,-5.328 0.792,-7.2c1.152,-3.384 3.744,-5.184 7.56,-5.184c3.816,0 6.48,1.728 7.632,5.184c0.576,1.728 0.792,3.744 0.792,7.2c0,3.456 -0.216,5.544 -0.792,7.2c-1.152,3.456 -3.816,5.256 -7.632,5.256Z" style="fill-rule:nonzero;"/></svg>