<?xml version="1.0" encoding="UTF-8" standalone="no"?><!DOCTYPE svg PUBLIC "-//W3C//DTD SVG 1.1//EN" "http://www.w3.org/Graphics/SVG/1.1/DTD/svg11.dtd"><svg width="100%" height="100%" viewBox="0 0 50 50" version="1.1" xmlns="http://www.w3.org/2000/svg" xmlns:xlink="http://www.w3.org/1999/xlink" xml:space="preserve" style="fill-rule:evenodd;clip-rule:evenodd;stroke-linejoin:round;stroke-miterlimit:1.41421;"><path d="M24.616,49.752c6.048,0 10.728,-2.448 13.464,-5.904c0.288,-0.36 0.288,-0.72 -0.072,-1.008l-2.952,-2.664c-0.36,-0.288 -0.72,-0.216 -1.08,0.144c-1.872,2.16 -4.752,3.816 -8.856,3.816c-4.248,0 -7.344,-2.016 -8.712,-5.976c-0.36,-1.152 -0.576,-2.304 -0.576,-4.176c0,-0.288 0.144,-0.432 0.432,-0.432l21.816,0c0.504,0 0.792,-0.288 0.792,-0.72c0,-5.256 -0.36,-7.632 -1.08,-9.864c-1.944,-5.904 -6.912,-9.288 -13.536,-9.288c-6.552,0 -11.592,3.312 -13.536,9.288c-0.72,2.088 -1.08,4.752 -1.08,8.712c0,3.96 0.432,6.48 1.152,8.712c1.872,5.976 6.84,9.36 13.824,9.36Zm-8.352,-21.024c-0.288,0 -0.432,-0.144 -0.432,-0.432c0,-1.584 0.144,-2.808 0.504,-3.888c1.152,-3.456 4.032,-5.4 7.92,-5.4c3.888,0 6.768,1.944 7.92,5.4c0.36,1.08 0.504,2.304 0.504,3.888c0,0.288 -0.144,0.432 -0.432,0.432l-15.984,0Z" style="fill-rule:nonzero;"/></svg>