<?xml version="1.0" encoding="UTF-8" standalone="no"?><!DOCTYPE svg PUBLIC "-//W3C//DTD SVG 1.1//EN" "http://www.w3.org/Graphics/SVG/1.1/DTD/svg11.dtd"><svg width="100%" height="100%" viewBox="0 0 50 50" version="1.1" xmlns="http://www.w3.org/2000/svg" xmlns:xlink="http://www.w3.org/1999/xlink" xml:space="preserve" style="fill-rule:evenodd;clip-rule:evenodd;stroke-linejoin:round;stroke-miterlimit:1.41421;"><path d="M20.072,48.96c0.432,0 0.72,-0.288 0.72,-0.72l0,-28.44c0,-0.288 0.144,-0.432 0.432,-0.432l6.696,0c0.432,0 0.72,-0.288 0.72,-0.72l0,-3.456c0,-0.432 -0.288,-0.72 -0.72,-0.72l-6.696,0c-0.288,0 -0.432,-0.144 -0.432,-0.432l0,-3.24c0,-4.248 0.864,-5.184 5.256,-5.184l1.872,0c0.432,0 0.72,-0.288 0.72,-0.72l0,-4.176c0,-0.432 -0.288,-0.72 -0.72,-0.72l-2.664,0c-7.2,0 -10.512,2.952 -10.512,11.088l0,2.952c0,0.288 -0.144,0.432 -0.432,0.432l-2.952,0c-0.432,0 -0.72,0.288 -0.72,0.72l0,3.456c0,0.432 0.288,0.72 0.72,0.72l2.952,0c0.288,0 0.432,0.144 0.432,0.432l0,28.44c0,0.432 0.288,0.72 0.72,0.72l4.608,0Z" style="fill-rule:nonzero;"/></svg>