<?xml version="1.0" encoding="UTF-8" standalone="no"?><!DOCTYPE svg PUBLIC "-//W3C//DTD SVG 1.1//EN" "http://www.w3.org/Graphics/SVG/1.1/DTD/svg11.dtd"><svg width="100%" height="100%" viewBox="0 0 50 50" version="1.1" xmlns="http://www.w3.org/2000/svg" xmlns:xlink="http://www.w3.org/1999/xlink" xml:space="preserve" style="fill-rule:evenodd;clip-rule:evenodd;stroke-linejoin:round;stroke-miterlimit:1.41421;"><path d="M13.72,49.712c9.72,0 15.048,-5.472 15.048,-15.264l0,-32.256c0,-0.432 -0.288,-0.72 -0.72,-0.72l-4.608,0c-0.432,0 -0.72,0.288 -0.72,0.72l0,3.24l-0.072,0c-1.584,-2.88 -4.536,-4.752 -9.576,-4.752c-5.832,0 -9.864,2.952 -11.592,8.352c-0.864,2.592 -1.152,5.112 -1.152,9.072c0,3.96 0.288,6.48 1.152,9.072c1.728,5.4 5.76,8.352 11.592,8.352c5.04,0 7.992,-1.872 9.576,-4.752l0.072,0l0,4.032c0,6.336 -3.024,9.288 -8.712,9.288c-3.312,0 -5.76,-1.296 -8.136,-3.456c-0.36,-0.36 -0.72,-0.36 -1.08,0l-2.952,2.952c-0.36,0.36 -0.36,0.648 -0.072,1.008c2.304,3.024 7.128,5.112 11.952,5.112Zm0.864,-19.728c-3.744,0 -6.12,-1.8 -7.272,-5.184c-0.576,-1.728 -0.864,-3.888 -0.864,-6.696c0,-2.808 0.288,-4.896 0.864,-6.696c1.152,-3.312 3.528,-5.112 7.272,-5.112c3.6,0 6.12,1.584 7.344,5.112c0.576,1.8 0.792,3.744 0.792,6.696c0,2.952 -0.216,4.968 -0.792,6.696c-1.224,3.528 -3.744,5.184 -7.344,5.184Z" style="fill-rule:nonzero;"/></svg>