<?xml version="1.0" encoding="UTF-8" standalone="no"?><!DOCTYPE svg PUBLIC "-//W3C//DTD SVG 1.1//EN" "http://www.w3.org/Graphics/SVG/1.1/DTD/svg11.dtd"><svg width="100%" height="100%" viewBox="0 0 50 50" version="1.1" xmlns="http://www.w3.org/2000/svg" xmlns:xlink="http://www.w3.org/1999/xlink" xml:space="preserve" style="fill-rule:evenodd;clip-rule:evenodd;stroke-linejoin:round;stroke-miterlimit:1.41421;"><path d="M26.216,6.696c0.432,0 0.72,-0.288 0.72,-0.72l0,-5.256c0,-0.432 -0.288,-0.72 -0.72,-0.72l-4.896,0c-0.432,0 -0.72,0.288 -0.72,0.72l0,5.256c0,0.432 0.288,0.72 0.72,0.72l4.896,0Zm-0.144,42.264c0.432,0 0.72,-0.288 0.72,-0.72l0,-33.048c0,-0.432 -0.288,-0.72 -0.72,-0.72l-4.608,0c-0.432,0 -0.72,0.288 -0.72,0.72l0,33.048c0,0.432 0.288,0.72 0.72,0.72l4.608,0Z" style="fill-rule:nonzero;"/></svg>