<?xml version="1.0" encoding="UTF-8" standalone="no"?><!DOCTYPE svg PUBLIC "-//W3C//DTD SVG 1.1//EN" "http://www.w3.org/Graphics/SVG/1.1/DTD/svg11.dtd"><svg width="100%" height="100%" viewBox="0 0 50 62" version="1.1" xmlns="http://www.w3.org/2000/svg" xmlns:xlink="http://www.w3.org/1999/xlink" xml:space="preserve" style="fill-rule:evenodd;clip-rule:evenodd;stroke-linejoin:round;stroke-miterlimit:1.41421;"><path d="M12.072,6.696c0.432,0 0.72,-0.288 0.72,-0.72l0,-5.256c0,-0.432 -0.288,-0.72 -0.72,-0.72l-4.896,0c-0.432,0 -0.72,0.288 -0.72,0.72l0,5.256c0,0.432 0.288,0.72 0.72,0.72l4.896,0Zm-9.72,55.224c6.984,0 10.296,-2.952 10.296,-10.368l0,-36.36c0,-0.432 -0.288,-0.72 -0.72,-0.72l-4.608,0c-0.432,0 -0.72,0.288 -0.72,0.72l0,36.504c0,3.672 -1.152,4.608 -4.536,4.608l-1.152,0c-0.432,0 -0.72,0.288 -0.72,0.72l0,4.176c0,0.432 0.288,0.72 0.72,0.72l1.44,0Z" style="fill-rule:nonzero;"/></svg>