<?xml version="1.0" encoding="UTF-8" standalone="no"?><!DOCTYPE svg PUBLIC "-//W3C//DTD SVG 1.1//EN" "http://www.w3.org/Graphics/SVG/1.1/DTD/svg11.dtd"><svg width="100%" height="100%" viewBox="0 0 50 50" version="1.1" xmlns="http://www.w3.org/2000/svg" xmlns:xlink="http://www.w3.org/1999/xlink" xml:space="preserve" style="fill-rule:evenodd;clip-rule:evenodd;stroke-linejoin:round;stroke-miterlimit:1.41421;"><path d="M28.752,48.96c0.432,0 0.648,-0.432 0.432,-0.72l-12.744,-20.736l10.584,-12.312c0.288,-0.36 0.144,-0.72 -0.288,-0.72l-5.328,0c-0.504,0 -0.864,0.144 -1.296,0.648l-13.608,16.056l0,-30.456c0,-0.432 -0.288,-0.72 -0.72,-0.72l-4.608,0c-0.432,0 -0.72,0.288 -0.72,0.72l0,47.52c0,0.432 0.288,0.72 0.72,0.72l4.608,0c0.432,0 0.72,-0.288 0.72,-0.72l0,-9.072l5.976,-6.984l9.792,16.056c0.288,0.504 0.648,0.72 1.152,0.72l5.328,0Z" style="fill-rule:nonzero;"/></svg>