<?xml version="1.0" encoding="UTF-8" standalone="no"?><!DOCTYPE svg PUBLIC "-//W3C//DTD SVG 1.1//EN" "http://www.w3.org/Graphics/SVG/1.1/DTD/svg11.dtd"><svg width="100%" height="100%" viewBox="0 0 50 50" version="1.1" xmlns="http://www.w3.org/2000/svg" xmlns:xlink="http://www.w3.org/1999/xlink" xml:space="preserve" style="fill-rule:evenodd;clip-rule:evenodd;stroke-linejoin:round;stroke-miterlimit:1.41421;"><path d="M47.032,35.96c0.432,0 0.72,-0.288 0.72,-0.72l0,-21.6c0,-7.848 -4.464,-12.96 -11.952,-12.96c-4.68,0 -7.992,2.016 -9.648,4.68l-0.072,0l0,-3.168c0,-0.432 -0.288,-0.72 -0.72,-0.72l-4.608,0c-0.432,0 -0.72,0.288 -0.72,0.72l0,33.048c0,0.432 0.288,0.72 0.72,0.72l4.608,0c0.432,0 0.72,-0.288 0.72,-0.72l0,-20.52c0,-5.112 3.24,-8.424 7.92,-8.424c5.184,0 7.704,3.24 7.704,8.784l0,20.16c0,0.432 0.288,0.72 0.72,0.72l4.608,0Z" style="fill-rule:nonzero;"/></svg>