<?xml version="1.0" encoding="UTF-8" standalone="no"?><!DOCTYPE svg PUBLIC "-//W3C//DTD SVG 1.1//EN" "http://www.w3.org/Graphics/SVG/1.1/DTD/svg11.dtd"><svg width="100%" height="100%" viewBox="0 0 50 50" version="1.1" xmlns="http://www.w3.org/2000/svg" xmlns:xlink="http://www.w3.org/1999/xlink" xml:space="preserve" style="fill-rule:evenodd;clip-rule:evenodd;stroke-linejoin:round;stroke-miterlimit:1.41421;"><path d="M24.872,49.752c6.696,0 11.736,-3.456 13.608,-9.288c0.792,-2.376 1.152,-4.752 1.152,-8.784c0,-3.96 -0.36,-6.336 -1.152,-8.712c-1.872,-5.904 -6.912,-9.288 -13.608,-9.288c-6.696,0 -11.736,3.384 -13.608,9.288c-0.792,2.376 -1.152,4.752 -1.152,8.712c0,4.032 0.36,6.408 1.152,8.784c1.872,5.832 6.912,9.288 13.608,9.288Zm0,-5.616c-3.816,0 -6.624,-1.944 -7.776,-5.4c-0.576,-1.872 -0.792,-3.744 -0.792,-7.056c0,-3.312 0.216,-5.112 0.792,-6.984c1.152,-3.456 3.96,-5.4 7.776,-5.4c3.816,0 6.624,1.944 7.776,5.4c0.576,1.872 0.792,3.672 0.792,6.984c0,3.312 -0.216,5.184 -0.792,7.056c-1.152,3.456 -3.96,5.4 -7.776,5.4Z" style="fill-rule:nonzero;"/></svg>