<?xml version="1.0" encoding="UTF-8" standalone="no"?><!DOCTYPE svg PUBLIC "-//W3C//DTD SVG 1.1//EN" "http://www.w3.org/Graphics/SVG/1.1/DTD/svg11.dtd"><svg width="100%" height="100%" viewBox="0 0 50 50" version="1.1" xmlns="http://www.w3.org/2000/svg" xmlns:xlink="http://www.w3.org/1999/xlink" xml:space="preserve" style="fill-rule:evenodd;clip-rule:evenodd;stroke-linejoin:round;stroke-miterlimit:1.41421;"><path d="M21.152,48.96c0.432,0 0.72,-0.288 0.72,-0.72l0,-18.864c0,-5.976 2.16,-10.08 7.416,-10.08c2.016,0 3.744,0.648 5.328,1.656c0.36,0.288 0.72,0.216 1.008,-0.144l2.664,-3.528c0.288,-0.36 0.216,-0.648 -0.144,-1.008c-1.728,-1.584 -4.32,-2.592 -7.056,-2.592c-4.608,0 -7.632,2.088 -9.144,5.04l-0.072,0l0,-3.528c0,-0.432 -0.288,-0.72 -0.72,-0.72l-4.608,0c-0.432,0 -0.72,0.288 -0.72,0.72l0,33.048c0,0.432 0.288,0.72 0.72,0.72l4.608,0Z" style="fill-rule:nonzero;"/></svg>