<?xml version="1.0" encoding="UTF-8" standalone="no"?><!DOCTYPE svg PUBLIC "-//W3C//DTD SVG 1.1//EN" "http://www.w3.org/Graphics/SVG/1.1/DTD/svg11.dtd"><svg width="100%" height="100%" viewBox="0 0 50 50" version="1.1" xmlns="http://www.w3.org/2000/svg" xmlns:xlink="http://www.w3.org/1999/xlink" xml:space="preserve" style="fill-rule:evenodd;clip-rule:evenodd;stroke-linejoin:round;stroke-miterlimit:1.41421;"><path d="M24.648,49.752c9,0 13.896,-4.536 13.896,-11.304c0,-5.544 -3.384,-9.072 -10.368,-9.72l-3.6,-0.36c-5.112,-0.504 -6.768,-1.944 -6.768,-4.68c0,-2.808 2.232,-4.752 6.552,-4.752c3.528,0 7.056,1.368 9.288,2.808c0.36,0.216 0.72,0.216 1.008,-0.144l2.448,-3.096c0.216,-0.36 0.216,-0.792 -0.144,-1.008c-2.88,-2.16 -7.2,-3.816 -12.24,-3.816c-8.136,0 -12.816,3.96 -12.816,10.512c0,5.616 3.528,9 10.296,9.72l3.672,0.36c5.4,0.576 6.696,2.088 6.696,4.824c0,3.096 -2.52,5.256 -7.56,5.256c-4.176,0 -8.064,-1.728 -10.656,-3.96c-0.288,-0.288 -0.72,-0.288 -1.008,0l-2.952,3.168c-0.288,0.288 -0.288,0.72 0,1.008c2.808,2.448 7.56,5.184 14.256,5.184Z" style="fill-rule:nonzero;"/></svg>