<?xml version="1.0" encoding="UTF-8" standalone="no"?><!DOCTYPE svg PUBLIC "-//W3C//DTD SVG 1.1//EN" "http://www.w3.org/Graphics/SVG/1.1/DTD/svg11.dtd"><svg width="100%" height="100%" viewBox="0 0 50 50" version="1.1" xmlns="http://www.w3.org/2000/svg" xmlns:xlink="http://www.w3.org/1999/xlink" xml:space="preserve" style="fill-rule:evenodd;clip-rule:evenodd;stroke-linejoin:round;stroke-miterlimit:1.41421;"><path d="M31.72,49.32c0.432,0 0.72,-0.288 0.72,-0.72l0,-4.176c0,-0.432 -0.288,-0.72 -0.72,-0.72l-1.512,0c-3.096,0 -4.392,-0.936 -4.392,-4.392l0,-19.512c0,-0.288 0.144,-0.432 0.432,-0.432l5.472,0c0.432,0 0.72,-0.288 0.72,-0.72l0,-3.456c0,-0.432 -0.288,-0.72 -0.72,-0.72l-5.472,0c-0.288,0 -0.432,-0.144 -0.432,-0.432l0,-9.72c0,-0.432 -0.288,-0.72 -0.72,-0.72l-4.608,0c-0.432,0 -0.72,0.288 -0.72,0.72l0,9.72c0,0.288 -0.144,0.432 -0.432,0.432l-2.88,0c-0.432,0 -0.72,0.288 -0.72,0.72l0,3.456c0,0.432 0.288,0.72 0.72,0.72l2.88,0c0.288,0 0.432,0.144 0.432,0.432l0,19.728c0,6.768 2.592,9.792 9.288,9.792l2.664,0Z" style="fill-rule:nonzero;"/></svg>