<?xml version="1.0" encoding="UTF-8" standalone="no"?><!DOCTYPE svg PUBLIC "-//W3C//DTD SVG 1.1//EN" "http://www.w3.org/Graphics/SVG/1.1/DTD/svg11.dtd"><svg width="100%" height="100%" viewBox="0 0 50 50" version="1.1" xmlns="http://www.w3.org/2000/svg" xmlns:xlink="http://www.w3.org/1999/xlink" xml:space="preserve" style="fill-rule:evenodd;clip-rule:evenodd;stroke-linejoin:round;stroke-miterlimit:1.41421;"><path d="M38.08,48.96c0.432,0 0.72,-0.288 0.72,-0.72l0,-33.048c0,-0.432 -0.288,-0.72 -0.72,-0.72l-4.608,0c-0.432,0 -0.72,0.288 -0.72,0.72l0,20.448c0,5.184 -3.096,8.496 -7.776,8.496c-5.112,0 -7.632,-3.24 -7.632,-8.856l0,-20.088c0,-0.432 -0.288,-0.72 -0.72,-0.72l-4.608,0c-0.432,0 -0.72,0.288 -0.72,0.72l0,21.528c0,7.848 4.392,13.032 11.952,13.032c4.464,0 7.632,-1.872 9.432,-4.752l0.072,0l0,3.24c0,0.432 0.288,0.72 0.72,0.72l4.608,0Z" style="fill-rule:nonzero;"/></svg>