<?xml version="1.0" encoding="UTF-8" standalone="no"?><!DOCTYPE svg PUBLIC "-//W3C//DTD SVG 1.1//EN" "http://www.w3.org/Graphics/SVG/1.1/DTD/svg11.dtd"><svg width="100%" height="100%" viewBox="0 0 50 50" version="1.1" xmlns="http://www.w3.org/2000/svg" xmlns:xlink="http://www.w3.org/1999/xlink" xml:space="preserve" style="fill-rule:evenodd;clip-rule:evenodd;stroke-linejoin:round;stroke-miterlimit:1.41421;"><path d="M37.72,48.96c0.504,0 0.72,-0.288 0.864,-0.72l10.872,-33.048c0.144,-0.432 -0.072,-0.72 -0.504,-0.72l-4.896,0c-0.504,0 -0.792,0.144 -0.936,0.72l-7.416,24.912l-0.144,0l-7.848,-24.912c-0.144,-0.504 -0.504,-0.72 -0.936,-0.72l-3.744,0c-0.432,0 -0.72,0.216 -0.864,0.72l-7.776,24.912l-0.144,0l-7.632,-24.912c-0.216,-0.576 -0.432,-0.72 -0.936,-0.72l-4.896,0c-0.432,0 -0.648,0.288 -0.504,0.72l10.8,33.048c0.144,0.432 0.432,0.72 0.864,0.72l4.176,0c0.432,0 0.72,-0.288 0.864,-0.72l7.848,-24.696l0.144,0l7.776,24.696c0.144,0.432 0.432,0.72 0.864,0.72l4.104,0Z" style="fill-rule:nonzero;"/></svg>