<?xml version="1.0" encoding="UTF-8" standalone="no"?><!DOCTYPE svg PUBLIC "-//W3C//DTD SVG 1.1//EN" "http://www.w3.org/Graphics/SVG/1.1/DTD/svg11.dtd"><svg width="100%" height="100%" viewBox="0 0 50 50" version="1.1" xmlns="http://www.w3.org/2000/svg" xmlns:xlink="http://www.w3.org/1999/xlink" xml:space="preserve" style="fill-rule:evenodd;clip-rule:evenodd;stroke-linejoin:round;stroke-miterlimit:1.41421;"><path d="M40.584,48.96c0.576,0 0.72,-0.36 0.504,-0.72l-11.808,-17.28l10.8,-15.768c0.216,-0.36 0.072,-0.72 -0.504,-0.72l-5.184,0c-0.432,0 -0.72,0.144 -1.008,0.648l-7.416,10.728l-0.072,0l-7.272,-10.728c-0.288,-0.576 -0.648,-0.648 -1.08,-0.648l-5.184,0c-0.576,0 -0.72,0.36 -0.504,0.72l10.728,15.768l-11.736,17.28c-0.216,0.36 -0.072,0.72 0.504,0.72l5.112,0c0.504,0 0.792,-0.144 1.08,-0.648l8.352,-12.168l0.072,0l8.352,12.168c0.36,0.504 0.576,0.648 1.08,0.648l5.184,0Z" style="fill-rule:nonzero;"/></svg>