<?xml version="1.0" encoding="UTF-8" standalone="no"?><!DOCTYPE svg PUBLIC "-//W3C//DTD SVG 1.1//EN" "http://www.w3.org/Graphics/SVG/1.1/DTD/svg11.dtd"><svg width="100%" height="100%" viewBox="0 0 50 50" version="1.1" xmlns="http://www.w3.org/2000/svg" xmlns:xlink="http://www.w3.org/1999/xlink" xml:space="preserve" style="fill-rule:evenodd;clip-rule:evenodd;stroke-linejoin:round;stroke-miterlimit:1.41421;"><path d="M16.312,48.92c5.184,0 7.848,-2.16 10.872,-10.296l13.608,-36.432c0.144,-0.432 -0.144,-0.72 -0.576,-0.72l-4.896,0c-0.432,0 -0.72,0.216 -0.864,0.72l-8.712,24.912l-0.144,0l-9.072,-24.912c-0.144,-0.504 -0.432,-0.72 -0.864,-0.72l-5.04,0c-0.504,0 -0.72,0.288 -0.576,0.72l12.672,32.76l-1.152,3.168c-1.512,3.96 -3.024,5.184 -5.832,5.184l-1.296,0c-0.432,0 -0.72,0.288 -0.72,0.72l0,4.176c0,0.432 0.288,0.72 0.72,0.72l1.872,0Z" style="fill-rule:nonzero;"/></svg>