<?xml version="1.0" encoding="UTF-8" standalone="no"?><!DOCTYPE svg PUBLIC "-//W3C//DTD SVG 1.1//EN" "http://www.w3.org/Graphics/SVG/1.1/DTD/svg11.dtd"><svg width="100%" height="100%" viewBox="0 0 50 50" version="1.1" xmlns="http://www.w3.org/2000/svg" xmlns:xlink="http://www.w3.org/1999/xlink" xml:space="preserve" style="fill-rule:evenodd;clip-rule:evenodd;stroke-linejoin:round;stroke-miterlimit:1.41421;"><path d="M36.256,48.96c0.432,0 0.72,-0.288 0.72,-0.72l0,-4.032c0,-0.432 -0.288,-0.72 -0.72,-0.72l-18.36,0l0,-0.144l18.792,-23.328c0.216,-0.288 0.288,-0.432 0.288,-0.792l0,-4.032c0,-0.432 -0.288,-0.72 -0.72,-0.72l-24.048,0c-0.432,0 -0.72,0.288 -0.72,0.72l0,4.032c0,0.432 0.288,0.72 0.72,0.72l17.568,0l0,0.144l-18.936,23.544c-0.216,0.216 -0.288,0.504 -0.288,0.792l0,3.816c0,0.432 0.288,0.72 0.72,0.72l24.984,0Z" style="fill-rule:nonzero;"/></svg>